{
  "accessors": [
    {
      "bufferView": 2,
      "componentType": 5126,
      "count": 6201,
      "max": [
        0.9144563674926758,
        0.9143600463867188,
        0.5980240702629089
      ],
      "min": [
        -0.9142633080482483,
        -0.9143598675727844,
        -0.9779927730560303
      ],
      "type": "VEC3"
    },
    {
      "bufferView": 2,
      "byteOffset": 74412,
      "componentType": 5126,
      "count": 6201,
      "max": [
        0.9999315142631531,
        0.9999800324440002,
        0.9992838501930237
      ],
      "min": [
        -0.9999640583992004,
        -0.9999799728393555,
        -1.0
      ],
      "type": "VEC3"
    },
    {
      "bufferView": 1,
      "componentType": 5126,
      "count": 6201,
      "max": [
        1.0000001192092896,
        0.7142859101295471
      ],
      "min": [
        0.0,
        0.0
      ],
      "type": "VEC2"
    },
    {
      "bufferView": 0,
      "componentType": 5125,
      "count": 35328,
      "type": "SCALAR"
    },
    {
      "bufferView": 2,
      "byteOffset": 148824,
      "componentType": 5126,
      "count": 6201,
      "max": [
        0.8782475590705872,
        0.8745604753494263,
        0.575895369052887
      ],
      "min": [
        -0.8696878552436829,
        -0.8745602369308472,
        -0.8283926248550415
      ],
      "type": "VEC3"
    },
    {
      "bufferView": 2,
      "byteOffset": 223236,
      "componentType": 5126,
      "count": 6201,
      "max": [
        0.9995405673980713,
        0.999641478061676,
        1.0
      ],
      "min": [
        -0.8679401278495789,
        -0.9996414184570313,
        -0.9999319314956665
      ],
      "type": "VEC3"
    },
    {
      "bufferView": 1,
      "byteOffset": 49608,
      "componentType": 5126,
      "count": 6201,
      "max": [
        1.0000001192092896,
        0.7142859101295471
      ],
      "min": [
        0.0,
        0.0
      ],
      "type": "VEC2"
    },
    {
      "bufferView": 0,
      "byteOffset": 141312,
      "componentType": 5125,
      "count": 35328,
      "type": "SCALAR"
    },
    {
      "bufferView": 2,
      "byteOffset": 297648,
      "componentType": 5126,
      "count": 3825,
      "max": [
        0.9079418778419495,
        0.9076406359672546,
        0.616736650466919
      ],
      "min": [
        -0.7196118831634521,
        -0.9076404571533203,
        -0.21842288970947266
      ],
      "type": "VEC3"
    },
    {
      "bufferView": 2,
      "byteOffset": 343548,
      "componentType": 5126,
      "count": 3825,
      "max": [
        1.0,
        0.9999959468841553,
        1.0
      ],
      "min": [
        -1.0,
        -0.9999958872795105,
        -0.9999954700469971
      ],
      "type": "VEC3"
    },
    {
      "bufferView": 1,
      "byteOffset": 99216,
      "componentType": 5126,
      "count": 3825,
      "max": [
        1.0,
        1.0
      ],
      "min": [
        0.0,
        0.0
      ],
      "type": "VEC2"
    },
    {
      "bufferView": 0,
      "byteOffset": 282624,
      "componentType": 5125,
      "count": 21504,
      "type": "SCALAR"
    },
    {
      "bufferView": 2,
      "byteOffset": 389448,
      "componentType": 5126,
      "count": 931,
      "max": [
        -0.7986375093460083,
        0.36156344413757324,
        0.2282761037349701
      ],
      "min": [
        -0.9163265824317932,
        -0.3615627586841583,
        -0.2282761186361313
      ],
      "type": "VEC3"
    },
    {
      "bufferView": 2,
      "byteOffset": 400620,
      "componentType": 5126,
      "count": 931,
      "max": [
        0.9996535778045654,
        0.9995683431625366,
        0.9893947839736938
      ],
      "min": [
        -0.9996625185012817,
        -0.9995682835578918,
        -0.9893947839736938
      ],
      "type": "VEC3"
    },
    {
      "bufferView": 1,
      "byteOffset": 129816,
      "componentType": 5126,
      "count": 931,
      "max": [
        1.0,
        1.0
      ],
      "min": [
        0.0,
        0.0
      ],
      "type": "VEC2"
    },
    {
      "bufferView": 0,
      "byteOffset": 368640,
      "componentType": 5125,
      "count": 5184,
      "type": "SCALAR"
    },
    {
      "bufferView": 2,
      "byteOffset": 411792,
      "componentType": 5126,
      "count": 9288,
      "max": [
        0.6971248388290405,
        0.6971247792243958,
        -0.9346173405647278
      ],
      "min": [
        -0.6971247792243958,
        -0.6971247792243958,
        -1.4839122295379639
      ],
      "type": "VEC3"
    },
    {
      "bufferView": 2,
      "byteOffset": 523248,
      "componentType": 5126,
      "count": 9288,
      "max": [
        0.9992996454238892,
        0.9992994666099548,
        0.9999662041664124
      ],
      "min": [
        -0.9992995858192444,
        -0.9992994666099548,
        -0.9997592568397522
      ],
      "type": "VEC3"
    },
    {
      "bufferView": 1,
      "byteOffset": 137264,
      "componentType": 5126,
      "count": 9288,
      "max": [
        1.0000001192092896,
        -0.9346173405647278
      ],
      "min": [
        0.0,
        -1.4936866760253906
      ],
      "type": "VEC2"
    },
    {
      "bufferView": 0,
      "byteOffset": 389376,
      "componentType": 5125,
      "count": 53760,
      "type": "SCALAR"
    },
    {
      "bufferView": 2,
      "byteOffset": 634704,
      "componentType": 5126,
      "count": 7611,
      "max": [
        0.4865730106830597,
        0.4865730106830597,
        -1.00642991065979
      ],
      "min": [
        -0.4865730106830597,
        -0.4865730106830597,
        -1.3761924505233765
      ],
      "type": "VEC3"
    },
    {
      "bufferView": 2,
      "byteOffset": 726036,
      "componentType": 5126,
      "count": 7611,
      "max": [
        0.9995691776275635,
        0.9995691180229187,
        0.9959722757339478
      ],
      "min": [
        -0.9995691776275635,
        -0.9995692372322083,
        -0.5781286954879761
      ],
      "type": "VEC3"
    },
    {
      "bufferView": 1,
      "byteOffset": 211568,
      "componentType": 5126,
      "count": 7611,
      "max": [
        1.0000001192092896,
        -1.0059274435043335
      ],
      "min": [
        0.0,
        -1.3777251243591309
      ],
      "type": "VEC2"
    },
    {
      "bufferView": 0,
      "byteOffset": 604416,
      "componentType": 5125,
      "count": 44544,
      "type": "SCALAR"
    },
    {
      "bufferView": 2,
      "byteOffset": 817368,
      "componentType": 5126,
      "count": 65532,
      "max": [
        0.8521779179573059,
        0.8745853900909424,
        0.2955249547958374
      ],
      "min": [
        -0.07362451404333115,
        -0.8644189238548279,
        -0.07145027816295624
      ],
      "type": "VEC3"
    },
    {
      "bufferView": 2,
      "byteOffset": 1603752,
      "componentType": 5126,
      "count": 65532,
      "max": [
        0.9993410706520081,
        0.9999920129776001,
        0.9857302904129028
      ],
      "min": [
        -0.9999960064888,
        -0.9999008774757385,
        -0.9999998807907104
      ],
      "type": "VEC3"
    },
    {
      "bufferView": 1,
      "byteOffset": 272456,
      "componentType": 5126,
      "count": 65532,
      "max": [
        1.000000238418579,
        1.000000238418579
      ],
      "min": [
        0.3984374403953552,
        0.5
      ],
      "type": "VEC2"
    },
    {
      "bufferView": 0,
      "byteOffset": 782592,
      "componentType": 5125,
      "count": 389376,
      "type": "SCALAR"
    },
    {
      "bufferView": 2,
      "byteOffset": 2390136,
      "componentType": 5126,
      "count": 65532,
      "max": [
        0.4351656138896942,
        0.8338053822517395,
        0.29578056931495667
      ],
      "min": [
        -0.027403216809034348,
        -0.09592581540346146,
        0.10933433473110199
      ],
      "type": "VEC3"
    },
    {
      "bufferView": 2,
      "byteOffset": 3176520,
      "componentType": 5126,
      "count": 65532,
      "max": [
        0.9993135333061218,
        0.8919292688369751,
        0.9978855848312378
      ],
      "min": [
        -0.8800855278968811,
        -0.9775658249855042,
        -0.9999974370002747
      ],
      "type": "VEC3"
    },
    {
      "bufferView": 1,
      "byteOffset": 796712,
      "componentType": 5126,
      "count": 65532,
      "max": [
        1.000000238418579,
        0.5158037543296814
      ],
      "min": [
        0.3984374403953552,
        0.5
      ],
      "type": "VEC2"
    },
    {
      "bufferView": 0,
      "byteOffset": 2340096,
      "componentType": 5125,
      "count": 388536,
      "type": "SCALAR"
    },
    {
      "bufferView": 2,
      "byteOffset": 3962904,
      "componentType": 5126,
      "count": 65532,
      "max": [
        0.059567634016275406,
        -0.0024077820125967264,
        0.29564619064331055
      ],
      "min": [
        -0.8335679769515991,
        -0.8469142317771912,
        -0.05491942539811134
      ],
      "type": "VEC3"
    },
    {
      "bufferView": 2,
      "byteOffset": 4749288,
      "componentType": 5126,
      "count": 65532,
      "max": [
        0.9981832504272461,
        0.9997691512107849,
        0.9505831003189087
      ],
      "min": [
        -0.9999954700469971,
        -0.769823431968689,
        -0.9999954104423523
      ],
      "type": "VEC3"
    },
    {
      "bufferView": 1,
      "byteOffset": 1320968,
      "componentType": 5126,
      "count": 65532,
      "max": [
        0.6109375953674316,
        1.000000238418579
      ],
      "min": [
        0.2765624225139618,
        0.5
      ],
      "type": "VEC2"
    },
    {
      "bufferView": 0,
      "byteOffset": 3894240,
      "componentType": 5125,
      "count": 388704,
      "type": "SCALAR"
    },
    {
      "bufferView": 2,
      "byteOffset": 5535672,
      "componentType": 5126,
      "count": 65532,
      "max": [
        -0.004796833265572786,
        0.8090102672576904,
        0.27959439158439636
      ],
      "min": [
        -0.8427852392196655,
        -0.15215249359607697,
        -0.06994450092315674
      ],
      "type": "VEC3"
    },
    {
      "bufferView": 2,
      "byteOffset": 6322056,
      "componentType": 5126,
      "count": 65532,
      "max": [
        0.9999789595603943,
        0.9359375238418579,
        0.9711543917655945
      ],
      "min": [
        -0.6178810596466064,
        -0.9997379183769226,
        -0.9999969005584717
      ],
      "type": "VEC3"
    },
    {
      "bufferView": 1,
      "byteOffset": 1845224,
      "componentType": 5126,
      "count": 65532,
      "max": [
        0.27812501788139343,
        1.000000238418579
      ],
      "min": [
        0.03749992698431015,
        0.5
      ],
      "type": "VEC2"
    },
    {
      "bufferView": 0,
      "byteOffset": 5449056,
      "componentType": 5125,
      "count": 389343,
      "type": "SCALAR"
    },
    {
      "bufferView": 2,
      "byteOffset": 7108440,
      "componentType": 5126,
      "count": 49803,
      "max": [
        0.7383154034614563,
        0.8754981756210327,
        0.29571181535720825
      ],
      "min": [
        -0.7981072068214417,
        -0.7671830058097839,
        -0.10287446528673172
      ],
      "type": "VEC3"
    },
    {
      "bufferView": 2,
      "byteOffset": 7706076,
      "componentType": 5126,
      "count": 49803,
      "max": [
        0.9995465278625488,
        0.9998006224632263,
        0.9999978542327881
      ],
      "min": [
        -0.9997996091842651,
        -0.9998208284378052,
        -1.0
      ],
      "type": "VEC3"
    },
    {
      "bufferView": 1,
      "byteOffset": 2369480,
      "componentType": 5126,
      "count": 49803,
      "max": [
        1.0000001192092896,
        1.000000238418579
      ],
      "min": [
        -7.450582728552035e-08,
        0.010000007227063179
      ],
      "type": "VEC2"
    },
    {
      "bufferView": 0,
      "byteOffset": 7006428,
      "componentType": 5125,
      "count": 287241,
      "type": "SCALAR"
    },
    {
      "bufferView": 2,
      "byteOffset": 8303712,
      "componentType": 5126,
      "count": 559,
      "max": [
        0.04222594574093819,
        0.04222595691680908,
        0.016691941767930984
      ],
      "min": [
        -0.0422259159386158,
        -0.04222593083977699,
        -0.016691941767930984
      ],
      "type": "VEC3"
    },
    {
      "bufferView": 2,
      "byteOffset": 8310420,
      "componentType": 5126,
      "count": 559,
      "max": [
        1.0,
        1.0,
        1.0
      ],
      "min": [
        -1.0,
        -1.0,
        -1.0
      ],
      "type": "VEC3"
    },
    {
      "bufferView": 1,
      "byteOffset": 2767904,
      "componentType": 5126,
      "count": 559,
      "max": [
        1.0,
        1.0
      ],
      "min": [
        0.0,
        0.0
      ],
      "type": "VEC2"
    },
    {
      "bufferView": 0,
      "byteOffset": 8155392,
      "componentType": 5125,
      "count": 2880,
      "type": "SCALAR"
    }
  ],
  "asset": {
    "extras": {
      "author": "CGulia (https://sketchfab.com/CGulia)",
      "license": "CC-BY-4.0 (http://creativecommons.org/licenses/by/4.0/)",
      "source": "https://sketchfab.com/3d-models/round-chair-b4c55aaccbb5453ebbe1fecf5d0cd40e",
      "title": "Round chair"
    },
    "generator": "Sketchfab-15.30.0",
    "version": "2.0"
  },
  "bufferViews": [
    {
      "buffer": 0,
      "byteLength": 8166912,
      "name": "floatBufferViews",
      "target": 34963
    },
    {
      "buffer": 0,
      "byteLength": 2772376,
      "byteOffset": 8166912,
      "byteStride": 8,
      "name": "floatBufferViews",
      "target": 34962
    },
    {
      "buffer": 0,
      "byteLength": 8317128,
      "byteOffset": 10939288,
      "byteStride": 12,
      "name": "floatBufferViews",
      "target": 34962
    }
  ],
  "buffers": [
    {
      "byteLength": 19256416,
      "uri": "scene.bin"
    }
  ],
  "extensionsUsed": [
    "KHR_materials_clearcoat",
    "KHR_materials_specular"
  ],
  "materials": [
    {
      "doubleSided": true,
      "extensions": {
        "KHR_materials_clearcoat": {
          "clearcoatFactor": 1.0,
          "clearcoatRoughnessFactor": 0.04
        }
      },
      "name": "White_Plastic",
      "pbrMetallicRoughness": {
        "baseColorFactor": [
          0.8913181109666124,
          0.8859740211117496,
          0.7847308206978088,
          1.0
        ],
        "metallicFactor": 0.0,
        "roughnessFactor": 0.7550849271443318
      }
    },
    {
      "doubleSided": true,
      "extensions": {
        "KHR_materials_clearcoat": {
          "clearcoatFactor": 0.5037561379802517,
          "clearcoatRoughnessFactor": 0.04
        }
      },
      "name": "Leather",
      "pbrMetallicRoughness": {
        "baseColorFactor": [
          0.975832,
          0.03622409999999998,
          0.016104099999999996,
          1.0
        ],
        "metallicFactor": 0.0
      }
    },
    {
      "doubleSided": true,
      "extensions": {
        "KHR_materials_clearcoat": {
          "clearcoatFactor": 1.0,
          "clearcoatRoughnessFactor": 0.04
        },
        "KHR_materials_specular": {
          "specularColorFactor": [
            1.0,
            1.0,
            1.0
          ],
          "specularFactor": 0.5341211865946945
        }
      },
      "name": "Chrome",
      "pbrMetallicRoughness": {
        "baseColorFactor": [
          0.7928999954488296,
          0.7936663367921959,
          0.7825674173983755,
          1.0
        ],
        "roughnessFactor": 0.0
      }
    }
  ],
  "meshes": [
    {
      "name": "Sphere_White Plastic_0",
      "primitives": [
        {
          "attributes": {
            "NORMAL": 1,
            "POSITION": 0,
            "TEXCOORD_0": 2
          },
          "indices": 3,
          "material": 0,
          "mode": 4
        }
      ]
    },
    {
      "name": "Sphere.001_Leather_0",
      "primitives": [
        {
          "attributes": {
            "NORMAL": 5,
            "POSITION": 4,
            "TEXCOORD_0": 6
          },
          "indices": 7,
          "material": 1,
          "mode": 4
        }
      ]
    },
    {
      "name": "Sphere.002_Chrome_0",
      "primitives": [
        {
          "attributes": {
            "NORMAL": 9,
            "POSITION": 8,
            "TEXCOORD_0": 10
          },
          "indices": 11,
          "material": 2,
          "mode": 4
        }
      ]
    },
    {
      "name": "Sphere.003_Chrome_0",
      "primitives": [
        {
          "attributes": {
            "NORMAL": 13,
            "POSITION": 12,
            "TEXCOORD_0": 14
          },
          "indices": 15,
          "material": 2,
          "mode": 4
        }
      ]
    },
    {
      "name": "Sphere.004_Chrome_0",
      "primitives": [
        {
          "attributes": {
            "NORMAL": 17,
            "POSITION": 16,
            "TEXCOORD_0": 18
          },
          "indices": 19,
          "material": 2,
          "mode": 4
        }
      ]
    },
    {
      "name": "Sphere.004_Leather_0",
      "primitives": [
        {
          "attributes": {
            "NORMAL": 21,
            "POSITION": 20,
            "TEXCOORD_0": 22
          },
          "indices": 23,
          "material": 1,
          "mode": 4
        }
      ]
    },
    {
      "name": "Cylinder_Leather_0",
      "primitives": [
        {
          "attributes": {
            "NORMAL": 25,
            "POSITION": 24,
            "TEXCOORD_0": 26
          },
          "indices": 27,
          "material": 1,
          "mode": 4
        }
      ]
    },
    {
      "name": "Cylinder_Leather_0",
      "primitives": [
        {
          "attributes": {
            "NORMAL": 29,
            "POSITION": 28,
            "TEXCOORD_0": 30
          },
          "indices": 31,
          "material": 1,
          "mode": 4
        }
      ]
    },
    {
      "name": "Cylinder_Leather_0",
      "primitives": [
        {
          "attributes": {
            "NORMAL": 33,
            "POSITION": 32,
            "TEXCOORD_0": 34
          },
          "indices": 35,
          "material": 1,
          "mode": 4
        }
      ]
    },
    {
      "name": "Cylinder_Leather_0",
      "primitives": [
        {
          "attributes": {
            "NORMAL": 37,
            "POSITION": 36,
            "TEXCOORD_0": 38
          },
          "indices": 39,
          "material": 1,
          "mode": 4
        }
      ]
    },
    {
      "name": "Cylinder_Leather_0",
      "primitives": [
        {
          "attributes": {
            "NORMAL": 41,
            "POSITION": 40,
            "TEXCOORD_0": 42
          },
          "indices": 43,
          "material": 1,
          "mode": 4
        }
      ]
    },
    {
      "name": "Sphere.005_Leather_0",
      "primitives": [
        {
          "attributes": {
            "NORMAL": 45,
            "POSITION": 44,
            "TEXCOORD_0": 46
          },
          "indices": 47,
          "material": 1,
          "mode": 4
        }
      ]
    }
  ],
  "nodes": [
    {
      "children": [
        1
      ],
      "matrix": [
        1.0,
        0.0,
        0.0,
        0.0,
        0.0,
        2.220446049250313e-16,
        -1.0,
        0.0,
        0.0,
        1.0,
        2.220446049250313e-16,
        0.0,
        0.0,
        0.0,
        0.0,
        1.0
      ],
      "name": "Sketchfab_model"
    },
    {
      "children": [
        2
      ],
      "matrix": [
        0.009999999776482582,
        0.0,
        0.0,
        0.0,
        0.0,
        0.0,
        0.009999999776482582,
        0.0,
        0.0,
        -0.009999999776482582,
        0.0,
        0.0,
        0.0,
        0.0,
        0.0,
        1.0
      ],
      "name": "93affbd85f0c4b87a5a8a2a43bafbc1a.fbx"
    },
    {
      "children": [
        3,
        5,
        7,
        9,
        11,
        14,
        20
      ],
      "name": "RootNode"
    },
    {
      "children": [
        4
      ],
      "matrix": [
        29.970729711609213,
        -5.551114699609309e-15,
        95.40311229029595,
        0.0,
        95.40311229029587,
        -4.371138650613578e-06,
        -29.970729711609177,
        0.0,
        4.170202960729341e-06,
        99.9999999999999,
        -1.3100623474926465e-06,
        0.0,
        -42.25246047973633,
        149.2887420654297,
        -53.14274978637695,
        1.0
      ],
      "name": "Sphere"
    },
    {
      "mesh": 0,
      "name": "Sphere_White Plastic_0"
    },
    {
      "children": [
        6
      ],
      "matrix": [
        29.970729711609213,
        -5.551114699609309e-15,
        95.40311229029595,
        0.0,
        95.40311229029587,
        -4.371138650613578e-06,
        -29.970729711609177,
        0.0,
        4.170202960729341e-06,
        99.9999999999999,
        -1.3100623474926465e-06,
        0.0,
        -42.25246047973633,
        149.2887420654297,
        -53.14274978637695,
        1.0
      ],
      "name": "Sphere.001"
    },
    {
      "mesh": 1,
      "name": "Sphere.001_Leather_0"
    },
    {
      "children": [
        8
      ],
      "matrix": [
        29.970729711609213,
        -5.551114699609309e-15,
        95.40311229029595,
        0.0,
        95.40311229029587,
        -4.371138650613578e-06,
        -29.970729711609177,
        0.0,
        4.170202960729341e-06,
        99.9999999999999,
        -1.3100623474926465e-06,
        0.0,
        -42.25246047973633,
        149.2887420654297,
        -53.14274978637695,
        1.0
      ],
      "name": "Sphere.002"
    },
    {
      "mesh": 2,
      "name": "Sphere.002_Chrome_0"
    },
    {
      "children": [
        10
      ],
      "matrix": [
        29.970729711609213,
        -5.551114699609309e-15,
        95.40311229029595,
        0.0,
        95.40311229029587,
        -4.371138650613578e-06,
        -29.970729711609177,
        0.0,
        4.170202960729341e-06,
        99.9999999999999,
        -1.3100623474926465e-06,
        0.0,
        -42.25246047973633,
        149.2887420654297,
        -53.14274978637695,
        1.0
      ],
      "name": "Sphere.003"
    },
    {
      "mesh": 3,
      "name": "Sphere.003_Chrome_0"
    },
    {
      "children": [
        12,
        13
      ],
      "matrix": [
        29.970729711609213,
        -5.551114699609309e-15,
        95.40311229029595,
        0.0,
        95.40311229029587,
        -4.371138650613578e-06,
        -29.970729711609177,
        0.0,
        4.170202960729341e-06,
        99.9999999999999,
        -1.3100623474926465e-06,
        0.0,
        -42.25246047973633,
        149.2887420654297,
        -53.14274978637695,
        1.0
      ],
      "name": "Sphere.004"
    },
    {
      "mesh": 4,
      "name": "Sphere.004_Chrome_0"
    },
    {
      "mesh": 5,
      "name": "Sphere.004_Leather_0"
    },
    {
      "children": [
        15,
        16,
        17,
        18,
        19
      ],
      "matrix": [
        29.970729711609213,
        -5.551114699609309e-15,
        95.40311229029595,
        0.0,
        95.40311229029587,
        -4.371138650613578e-06,
        -29.970729711609177,
        0.0,
        4.170202960729341e-06,
        99.9999999999999,
        -1.3100623474926465e-06,
        0.0,
        -42.25246047973633,
        111.15470123291016,
        -53.14274978637695,
        1.0
      ],
      "name": "Cylinder"
    },
    {
      "mesh": 6,
      "name": "Cylinder_Leather_0"
    },
    {
      "mesh": 7,
      "name": "Cylinder_Leather_0"
    },
    {
      "mesh": 8,
      "name": "Cylinder_Leather_0"
    },
    {
      "mesh": 9,
      "name": "Cylinder_Leather_0"
    },
    {
      "mesh": 10,
      "name": "Cylinder_Leather_0"
    },
    {
      "children": [
        21
      ],
      "matrix": [
        29.970729711609213,
        -5.551114699609309e-15,
        95.40311229029595,
        0.0,
        95.40311229029587,
        -4.371138650613578e-06,
        -29.970729711609177,
        0.0,
        4.170202960729341e-06,
        99.9999999999999,
        -1.3100623474926465e-06,
        0.0,
        -42.25246047973633,
        124.51404571533203,
        -53.14274978637695,
        1.0
      ],
      "name": "Sphere.005"
    },
    {
      "mesh": 11,
      "name": "Sphere.005_Leather_0"
    }
  ],
  "scene": 0,
  "scenes": [
    {
      "name": "Sketchfab_Scene",
      "nodes": [
        0
      ]
    }
  ]
}
